#!OML:ASF E:\pregnant2\Project 1\Capture day 1\Session 1\pregnant2.ASF
:FULLY-SPECIFIED
:DEGREES
1703
root 9.10769 14.5284 23.4648 84.4787 -0.681786 0.642489
lowerback -43.7784 -0.254073 -1.2256
upperback -12.5895 0.307879 -0.69762
thorax 6.41531 0.160461 0.0102982
lowerneck -20.7318 -0.289308 -1.37015
upperneck 24.4556 0.50659 -1.55237
head 11.4063 -0.102133 -0.261209
rclavicle 2.98177e-016 5.89521e-015
rhumerus -74.0287 45.9287 -117.671
rradius 49.5901
rwrist 18.518
rhand -48.1605 -41.5838
rfingers 7.12502
rthumb -20.8226 -70.4864
lclavicle 2.98177e-016 5.89521e-015
lhumerus -71.8727 -47.0097 116.083
lradius 47.4388
lwrist -4.74794
lhand -44.2718 49.0058
lfingers 7.12502
lthumb -17.0829 78.2748
rfemur -127.709 0.101504 25.0319
rtibia 61.0706
rfoot -15.1001 -3.76654
rtoes -2.71057
lfemur -126.755 -1.86121 -15.7247
ltibia 60.2929
lfoot -12.5906 11.307
ltoes -18.7554
1704
root 9.10254 14.5751 23.5209 84.5137 -0.633679 0.613053
lowerback -44.0534 -0.246306 -1.19365
upperback -12.6112 0.306078 -0.675517
thorax 6.46485 0.159505 0.0164261
lowerneck -20.7782 -0.261957 -1.33411
upperneck 24.2398 0.526727 -1.5432
head 11.3334 -0.0867002 -0.259956
rclavicle 2.32019e-015 -2.88859e-015
rhumerus -73.1469 45.6908 -117.56
rradius 48.1205
rwrist 18.0882
rhand -48.1113 -40.6581
rfingers 7.12502
rthumb -20.7754 -69.5659
lclavicle 2.32019e-015 -2.88859e-015
lhumerus -70.7112 -46.5183 115.629
lradius 45.7664
lwrist -5.256
lhand -44.2021 48.4857
lfingers 7.12502
lthumb -17.0158 77.7604
rfemur -127.171 0.106938 24.8506
rtibia 60.5492
rfoot -15.1175 -3.97566
rtoes -2.77789
lfemur -126.244 -1.79527 -15.4038
ltibia 59.7773
lfoot -12.527 11.545
ltoes -18.7848
1705
root 9.09735 14.6209 23.5747 84.5186 -0.591912 0.592055
lowerback -44.277 -0.23749 -1.17036
upperback -12.6385 0.309402 -0.662326
thorax 6.49357 0.161165 0.0196668
lowerneck -20.834 -0.241633 -1.29751
upperneck 24.033 0.537796 -1.53599
head 11.266 -0.0756898 -0.261011
rclavicle 5.64673e-015 -5.63741e-015
rhumerus -72.261 45.4406 -117.429
rradius 46.6701
rwrist 17.7063
rhand -47.9552 -39.5522
rfingers 7.12502
rthumb -20.6254 -68.4763
lclavicle 5.64673e-015 -5.63741e-015
lhumerus -69.5323 -46.0336 115.15
lradius 44.0821
lwrist -5.8102
lhand -44.0858 47.8773
lfingers 7.12502
lthumb -16.9038 77.1617
rfemur -126.62 0.10297 24.6537
rtibia 60.0399
rfoot -15.1312 -4.19172
rtoes -2.83847
lfemur -125.714 -1.74149 -15.0841
ltibia 59.2673
lfoot -12.4592 11.7878
ltoes -18.8088
1706
root 9.09218 14.666 23.6265 84.4914 -0.553604 0.578617
lowerback -44.4479 -0.222798 -1.15148
upperback -12.6693 0.322547 -0.660685
thorax 6.50419 0.167552 0.0169803
lowerneck -20.9019 -0.232254 -1.26398
upperneck 23.8334 0.533794 -1.52444
head 11.2038 -0.0713323 -0.262383
rclavicle 1.08089e-015 -3.79554e-015
rhumerus -71.3602 45.1599 -117.256
rradius 45.2338
rwrist 17.4721
rhand -47.6329 -38.1893
rfingers 7.12502
rthumb -20.3156 -67.1468
lclavicle 1.08089e-015 -3.79554e-015
lhumerus -68.3276 -45.5578 114.634
lradius 42.3982
lwrist -6.42727
lhand -43.8917 47.1278
lfingers 7.12502
lthumb -16.7169 76.428
rfemur -126.054 0.0904647 24.4452
rtibia 59.5437
rfoot -15.1459 -4.41267
rtoes -2.88456
lfemur -125.163 -1.70047 -14.7671
ltibia 58.7633
lfoot -12.3883 12.0311
ltoes -18.8325
1707
root 9.08707 14.7106 23.6759 84.4253 -0.521403 0.57012
lowerback -44.5539 -0.202419 -1.1368
upperback -12.7062 0.344811 -0.669607
thorax 6.49064 0.178345 0.00901028
lowerneck -20.9739 -0.232753 -1.2348
upperneck 23.635 0.515969 -1.50709
head 11.143 -0.0729207 -0.263073
rclavicle -4.33599e-015 3.79554e-015
rhumerus -70.4448 44.8439 -117.029
rradius 43.8307
rwrist 17.3994
rhand -47.0901 -36.5458
rfingers 7.12502
rthumb -19.7939 -65.5579
lclavicle -4.33599e-015 3.79554e-015
lhumerus -67.0876 -45.065 114.054
lradius 40.7388
lwrist -7.15121
lhand -43.6045 46.2022
lfingers 7.12502
lthumb -16.4404 75.5255
rfemur -125.466 0.0720737 24.224
rtibia 59.0603
rfoot -15.1584 -4.63879
rtoes -2.9257
lfemur -124.585 -1.67078 -14.457
ltibia 58.2663
lfoot -12.3146 12.2733
ltoes -18.8451
1708
root 9.08201 14.7549 23.7228 84.306 -0.502751 0.568392
lowerback -44.5759 -0.18357 -1.13542
upperback -12.7484 0.370474 -0.686156
thorax 6.44909 0.191031 0.00114642
lowerneck -21.0526 -0.238406 -1.20955
upperneck 23.4371 0.490826 -1.48378
head 11.0837 -0.0774976 -0.262099
rclavicle 1.64619e-015 1.09332e-015
rhumerus -69.5339 44.5026 -116.76
rradius 42.4838
rwrist 17.5339
rhand -46.2771 -34.7337
rfingers 7.12502
rthumb -19.0122 -63.8245
lclavicle 1.64619e-015 1.09332e-015
lhumerus -65.8128 -44.5354 113.389
lradius 39.1298
lwrist -8.00304
lhand -43.2288 45.0826
lfingers 7.12502
lthumb -16.0787 74.4355
rfemur -124.843 0.0454736 23.9822
rtibia 58.5898
rfoot -15.1667 -4.86965
rtoes -2.95443
lfemur -123.965 -1.65727 -14.1671
ltibia 57.7773
lfoot -12.241 12.5122
ltoes -18.8511
1709
root 9.077 14.7991 23.7673 84.1355 -0.499624 0.57096
lowerback -44.523 -0.167986 -1.1479
upperback -12.7954 0.397264 -0.706621
thorax 6.38251 0.204609 -0.00335339
lowerneck -21.1259 -0.248634 -1.19981
upperneck 23.2322 0.460374 -1.446
head 11.0208 -0.0839938 -0.254072
rclavicle -4.08751e-015 3.72721e-015
rhumerus -68.5695 44.1137 -116.366
rradius 41.1928
rwrist 17.8651
rhand -45.3335 -32.7394
rfingers 7.12502
rthumb -18.1045 -61.9168
lclavicle -4.08751e-015 3.72721e-015
lhumerus -64.5246 -43.9535 112.64
lradius 37.6123
lwrist -8.99282
lhand -42.7353 43.7788
lfingers 7.12502
lthumb -15.6034 73.1695
rfemur -124.185 0.0139269 23.716
rtibia 58.1301
rfoot -15.1705 -5.10664
rtoes -2.95836
lfemur -123.305 -1.65755 -13.8997
ltibia 57.2972
lfoot -12.1688 12.7472
ltoes -18.8515
